<?xml version="1.0" encoding="utf-8"?>
<!-- Generator: Adobe Illustrator 17.0.0, SVG Export Plug-In . SVG Version: 6.00 Build 0)  -->
<!DOCTYPE svg PUBLIC "-//W3C//DTD SVG 1.1//EN" "http://www.w3.org/Graphics/SVG/1.1/DTD/svg11.dtd">
<svg version="1.1" id="Laag_1" xmlns="http://www.w3.org/2000/svg" xmlns:xlink="http://www.w3.org/1999/xlink" x="0px" y="0px"
	 width="891px" height="195px" viewBox="0 0 891 195" enable-background="new 0 0 891 195" xml:space="preserve">
<g>
	<g>
		<linearGradient id="SVGID_1_" gradientUnits="userSpaceOnUse" x1="1129.0197" y1="-148.3087" x2="-147.7201" y2="169.9721">
			<stop  offset="0" style="stop-color:#312B80"/>
			<stop  offset="1" style="stop-color:#E54F28"/>
		</linearGradient>
		<path fill="url(#SVGID_1_)" d="M9.274,180.587V51.707c0-3.609,4.402-5.373,6.894-2.762l88.57,92.793
			c2.492,2.611,6.894,0.847,6.894-2.762V52.232c0-2.209,1.791-4,4-4h8.998c2.209,0,4,1.791,4,4v127.976
			c0,3.609-4.402,5.373-6.894,2.762L33.168,90.177c-2.492-2.611-6.894-0.847-6.894,2.762v87.648c0,2.209-1.791,4-4,4h-8.999
			C11.065,184.587,9.274,182.796,9.274,180.587z"/>
		<linearGradient id="SVGID_2_" gradientUnits="userSpaceOnUse" x1="1130.4908" y1="-138.9862" x2="-146.2489" y2="179.2946">
			<stop  offset="0" style="stop-color:#312B80"/>
			<stop  offset="1" style="stop-color:#E54F28"/>
		</linearGradient>
		<path fill="url(#SVGID_2_)" d="M204.903,28.96c14.043-13.925,30.833-20.887,50.365-20.887c19.531,0,36.317,6.962,50.364,20.887
			C319.675,42.885,326.7,59.613,326.7,79.143c0,20.136-6.935,37.014-20.797,50.636c-13.867,13.625-30.743,20.435-50.636,20.435
			s-36.774-6.81-50.636-20.435c-13.867-13.621-20.797-30.499-20.797-50.636C183.836,59.613,190.858,42.885,204.903,28.96z
			 M216.929,118.296c10.729,10.669,23.509,16.004,38.339,16.004c14.828,0,27.607-5.335,38.337-16.004
			c10.73-10.67,16.096-23.72,16.096-39.153c0-15.31-5.153-28.329-15.462-39.061c-10.308-10.729-23.301-16.096-38.971-16.096
			c-15.675,0-28.664,5.367-38.973,16.096c-10.307,10.732-15.462,23.751-15.462,39.061
			C200.834,94.576,206.197,107.626,216.929,118.296z"/>
		<linearGradient id="SVGID_3_" gradientUnits="userSpaceOnUse" x1="1128.8972" y1="-61.7874" x2="-147.8426" y2="256.4933">
			<stop  offset="0" style="stop-color:#312B80"/>
			<stop  offset="1" style="stop-color:#E54F28"/>
		</linearGradient>
		<path fill="url(#SVGID_3_)" d="M402.043,50.391l35.719,88.589c1.416,3.512,6.389,3.508,7.8-0.006l35.558-88.577
			c0.64-1.593,2.184-2.638,3.901-2.638h9.508c2.992,0,5.026,3.038,3.887,5.805L445.55,181.924c-1.428,3.468-6.34,3.471-7.772,0.004
			l-53.023-128.36c-1.143-2.767,0.891-5.809,3.885-5.809h9.504C399.859,47.759,401.402,48.801,402.043,50.391z"/>
		<linearGradient id="SVGID_4_" gradientUnits="userSpaceOnUse" x1="1149.7272" y1="-18.7112" x2="-127.0126" y2="299.5695">
			<stop  offset="0" style="stop-color:#312B80"/>
			<stop  offset="1" style="stop-color:#E54F28"/>
		</linearGradient>
		<path fill="url(#SVGID_4_)" d="M582.62,46.519h7.737c2.558,0,4.631,2.073,4.631,4.631v75.843c0,28.574,10.967,42.86,32.912,42.86
			c21.941,0,32.915-14.285,32.915-42.86V51.15c0-2.558,2.073-4.631,4.631-4.631h7.734c2.558,0,4.631,2.073,4.631,4.631v81.63
			c0,15.433-4.493,28.12-13.471,38.067c-8.982,9.946-21.129,14.919-36.44,14.919s-27.458-4.973-36.44-14.919
			c-8.982-9.946-13.471-22.633-13.471-38.067V51.15C577.989,48.593,580.063,46.519,582.62,46.519z"/>
		<linearGradient id="SVGID_5_" gradientUnits="userSpaceOnUse" x1="1288.3318" y1="-2.5077" x2="-437.7195" y2="427.7827">
			<stop  offset="0" style="stop-color:#312B80"/>
			<stop  offset="1" style="stop-color:#E54F28"/>
		</linearGradient>
		<path fill="url(#SVGID_5_)" d="M872.782,48.273L813.86,109.77l-58.922-61.497c-2.544-2.666-7.039-0.865-7.039,2.82v129.364
			c0,2.256,1.829,4.084,4.084,4.084h8.92c2.256,0,4.084-1.829,4.084-4.084V92.548c0-3.685,4.495-5.486,7.039-2.82l41.453,43.919
			c0.079,0.084,0.212,0.084,0.292,0.001l41.922-43.92c2.544-2.665,7.039-0.865,7.039,2.82v87.908c0,2.256,1.829,4.084,4.084,4.084
			h8.92c2.256,0,4.084-1.829,4.084-4.084V51.093C879.821,47.408,875.326,45.607,872.782,48.273z"/>
	</g>
</g>
</svg>
